<?xml version="1.0" encoding="utf-8"?>
<!-- Generator: Adobe Illustrator 21.0.2, SVG Export Plug-In . SVG Version: 6.00 Build 0)  -->
<svg version="1.1" id="Layer_1" xmlns="http://www.w3.org/2000/svg" xmlns:xlink="http://www.w3.org/1999/xlink" x="0px" y="0px"
	 viewBox="0 0 3025 3025" style="enable-background:new 0 0 3025 3025;" xml:space="preserve">
<style type="text/css">
	.st0{fill:#522F1A;}
	.st1{fill:#26160D;}
	.st2{fill:#301C10;}
	.st3{fill:#78655E;}
	.st4{fill:#2B2522;}
	.st5{fill:#6B3E22;}
	.st6{fill:#3D2415;}
	.st7{fill:none;}
	.st8{fill:#E6E6E3;}
	.st9{clip-path:url(#SVGID_2_);}
	.st10{stroke:#000000;stroke-width:4.5646;stroke-miterlimit:10;}
	.st11{fill:#F2F2F2;stroke:#000000;stroke-width:4.5646;stroke-miterlimit:10;}
	.st12{fill:#FFA89C;stroke:#FFA89C;stroke-width:9.1292;stroke-miterlimit:10;}
	.st13{fill:#CC232A;}
	.st14{fill:#C1343A;}
	.st15{clip-path:url(#SVGID_4_);}
	.st16{fill:#472917;}
	.st17{fill:#472917;stroke:#472917;stroke-miterlimit:10;}
	.st18{fill:#0D0D0D;}
</style>
<g>
	<polygon class="st0" points="2554.6,511 330.6,511 294.6,577 2554.6,574 	"/>
	<path class="st1" d="M535.2,1208.8c60.2-142.9,99.7-332,99.7-509.4c0-285.9-102.6-424.1-229.2-319.8
		c-48.1,39.7-63.3,109.8-100.2,197.4L535.2,1208.8z"/>
	<path class="st1" d="M319.4,568.7c33.8-76.5,73.2-135.5,111.8-167.3c19.4-15.9,37.7-24.4,53.1-24.4c11.7,0,22.7,4.9,33.8,14.8
		c13.8,12.4,26.8,32.6,37.7,58.2c25.6,60.2,39.2,146.4,39.2,249.3c0,130.7-22.5,273.2-61.6,398L319.4,568.7z"/>
	<path class="st2" d="M535.2,1214.8c60.2-142.9,99.7-332,99.7-509.4c0-285.9-102.6-433.1-229.2-328.8
		c-48.1,39.7-86.8,110-123.7,197.6h2273c36.9-87.7,45.4,258.5,93.5,218.8c126.6-104.3,29-190.9,29,95
		c0,177.4,196.8,183.9,136.6,326.8H535.2z"/>
	<rect x="560.4" y="1226.5" class="st1" width="2238.2" height="1032.8"/>
	<polygon class="st2" points="560.6,1256 193.2,1655.1 193.2,2692.4 560.6,2293.3 	"/>
	<path class="st3" d="M151.1,1654"/>
	<path class="st4" d="M151.6,1654"/>
	<polygon class="st5" points="518.7,1226 111.4,1655.1 193.6,1655 607.6,1217 	"/>
	<g>
		<g>
			<path class="st6" d="M2559.2,568.2l-2283.2,0L531.4,1209l2283.2,0L2559.2,568.2z M376.8,643l2130.4,0l211.7,517.5l-2130.4,0
				L376.8,643z"/>
		</g>
	</g>
	<line class="st7" x1="2814.6" y1="1209" x2="2554.6" y2="568"/>
	<path class="st0" d="M2765.4,342.9"/>
	<path class="st0" d="M2765.4,342.9"/>
	<path class="st0" d="M2768.6,343c-25.1-0.7-55.4,10-83.8,33.4c-48.1,39.7-92.8,110-129.7,197.6h-2279
		c36.9-87.7,81.5-158,129.7-197.6c31.6-26.1,61.8-39.4,89.2-35.8"/>
	<polygon class="st5" points="490.6,1256 2764.6,1256 2814.9,1208.8 532.7,1208.8 	"/>
	<g>
		<path class="st8" d="M1339.3,1913.7c-22.7,25.3-71.2,73.6-90.6,93c-19.4,19.3-51.6-45.2-90.4-6.5c-43.1,43-16.3,113,25.7,116.2
			c42,3.3,42,6.5,54.8,19.4l-1.6-1.6c12.9,12.9,16.1,12.9,19.3,54.9s73.1,69,116.2,25.9c38.8-38.7-25.7-71-6.4-90.4
			c19.4-19.3,67.9-67.7,93.2-90.4"/>
		<g>
			<defs>
				<path id="SVGID_1_" d="M2368.2,976.6c-184-184.4-418.9-237.7-558.3-126.5c-161.5,128.9-336,316-378.4,693.6
					c-19.5,174.3-110,261.3-110.1,322.7c-0.1,93.7,119.2,216.4,238.7,174.5c105.6-37,197.1-112.1,316.4-122.3
					c148.5-12.8,406.7-57.7,578-228.6C2590.3,1554.6,2642.2,1251.2,2368.2,976.6z"/>
			</defs>
			<clipPath id="SVGID_2_">
				<use xlink:href="#SVGID_1_"  style="overflow:visible;"/>
			</clipPath>
			<g class="st9">
				<path class="st10" d="M2251.1,1831.8l51.6,84l-167.8-45.4c-71,19.3-146.6-103.3-214.2-257.6c-37.2-84.8-53.2-165.5-112-225.3
					l130-166.1l202.9,461.8c0.6,27.2,93.4,151.8,116.7,141.9"/>
				<path class="st11" d="M1808.6,1387.5c58.8,59.8,74.8,140.5,112,225.3c67.6,154.3,143.2,276.9,214.2,257.6l-16.3,119.4
					l-119.3-87.3c-130.3,40.8-554.5-594.5-392.9-846.1l-31.9-322.8l342.2-64.2L1808.6,1387.5z"/>
				<path class="st10" d="M1999.3,1902.6c-130.3,40.8-554.5-594.5-392.9-846.1l-232.4-0.2l93.3,300.3
					c-71.2,213,244.7,613.5,318.9,584.5l209.7,100.3L1999.3,1902.6z"/>
				<path class="st11" d="M1467.3,1356.5c-71.2,213,244.7,613.5,318.9,584.5l-9.9,203.3l-141.9-135.7
					c-74.3,29-274.1-229.4-241.7-313.3l-128.9-161.5L1467.3,1356.5z"/>
				<path class="st10" d="M1634.4,2008.7c-74.3,29-274.1-229.4-241.7-313.3l-209.9,61.1l325.5,442.5L1634.4,2008.7z"/>
				<path class="st11" d="M2141.5,1683.2c0.6,27.2,93.4,151.8,116.7,141.9l196.2,10.1l119.7-235.5l-219.4-71.2L2141.5,1683.2z"/>
			</g>
		</g>
		<path class="st12" d="M2368.2,976.6c-184-184.4-418.9-237.7-558.3-126.5c-161.5,128.9-229.5,364.5,125.2,655.3
			c240,196.8,348.2,355.4,519.5,184.5C2590.3,1554.6,2642.2,1251.2,2368.2,976.6z"/>
		<path class="st13" d="M2332.9,1014.6c-153.8-154.1-350.1-198.6-466.5-105.7c-135,107.7-191.8,304.6,104.6,547.6
			c200.6,164.5,291,297,434.1,154.2C2518.5,1497.6,2561.9,1244.1,2332.9,1014.6z"/>
		<path class="st14" d="M2300.6,1046.9c-153.8-154.1-330.1-184.5-418.1-95.9c-108.3,109-150.4,247.7,117.6,476.6
			c150.3,128.4,251.2,265.5,369.5,147.7C2483.1,1462.2,2499.1,1245.8,2300.6,1046.9z"/>
		<path class="st8" d="M2101.6,1278.1c-33.5-39.4-42.6-83.2-17.6-108.1c29.1-29,74.3-16.1,114.6,24.3
			c36.5,36.6,39.4,86.4,14.4,111.4C2183.8,1334.7,2138.7,1321.7,2101.6,1278.1z"/>
	</g>
	<polygon class="st5" points="2717,1226 2309.8,1655.1 2391.6,1655 2814.6,1209 	"/>
	<g>
		<path class="st8" d="M500,1145.8c-20.4-27.2-58.3-84.2-73.5-107c-15.2-22.8,54.4-41.8,24.1-87.4c-33.8-50.7-107.6-38-119,2.5
			c-11.4,40.5-14.6,39.9-29.8,50l1.9-1.3c-15.2,10.1-15.8,13.3-57.6,8.2s-81.9,58.2-48.1,108.9c30.4,45.6,74.7-11.4,89.9,11.4
			c15.2,22.8,53.2,79.8,70.5,109"/>
		<g>
			<defs>
				<path id="SVGID_3_" d="M1218.2,2337.8c216.8-144.5,314.9-364.5,233-522.8c-94.9-183.6-244.3-391.2-606.4-506.5
					c-167.1-53.2-234.8-158.9-295-170.9c-91.8-18.4-235.5,74.7-217.8,200c15.7,110.8,71.4,215.1,58.2,334.2
					c-16.5,148.1-22.8,410.2,111.3,611.5C608,2442.8,895.3,2553,1218.2,2337.8z"/>
			</defs>
			<clipPath id="SVGID_4_">
				<use xlink:href="#SVGID_3_"  style="overflow:visible;"/>
			</clipPath>
			<g class="st15">
				<path class="st10" d="M402.3,2056.1l-92.4,34.2l77.2-155.7c-5.1-73.4,130-123.6,294.5-159.8c90.4-19.9,172.7-19.9,242.8-65.9
					l137.5,159.9l-492.5,108.8c-26.8-4.7-167.1,62-162,86.8"/>
				<path class="st11" d="M924.4,1708.8c-70.1,46-152.4,46-242.8,65.9c-164.5,36.2-299.5,86.4-294.5,159.8l-113.9-39.3l108.9-100
					c-14.6-135.7,691.3-427.8,906.5-220.2l322.8,31.7l-3.8,348.1L924.4,1708.8z"/>
				<path class="st10" d="M382,1795.3c-14.6-135.7,691.3-427.8,906.5-220.2l45.6-227.9l-312.7,32.9
					c-195-111.4-649.5,120.2-635.5,198.7l-139.3,186.1L382,1795.3z"/>
				<path class="st11" d="M1021.4,1380.1c-195-111.4-649.5,120.2-635.5,198.7l-197.5-49.4l160.8-112.7
					c-13.9-78.5,278.5-224.1,354.5-175.9l190.6,65.1L1021.4,1380.1z"/>
				<path class="st10" d="M349.2,1416.7c-13.9-78.5,278.5-224.1,354.5-175.9l-19-217.8l-497.6,232.9L349.2,1416.7z"/>
				<path class="st11" d="M569.4,1977.6c-26.8-4.7-167.1,62-162,86.8l-48.2,190.4l207.6,163.3l112.7-201.3L569.4,1977.6z"/>
			</g>
		</g>
		<path class="st12" d="M1218.2,2337.8c216.8-144.5,314.9-364.5,233-522.8c-94.9-183.6-312.7-296.3-667.2-5.1
			c-239.9,197-416.5,272.1-282.4,473.4C608,2442.8,895.3,2553,1218.2,2337.8z"/>
		<path class="st13" d="M1187.8,2295.8c181.2-120.7,263.1-304.6,194.7-436.9c-79.3-153.4-261.3-247.6-557.5-4.3
			C624.5,2019.2,476.9,2082,589,2250.2C677.9,2383.5,918,2475.6,1187.8,2295.8z"/>
		<path class="st14" d="M1162.5,2257.8c181.2-120.7,245.4-287.7,175.7-391.3c-85.7-127.5-213.6-195.8-490.4,22.3
			c-155.3,122.4-309.4,194.5-217,333.6C719.5,2355.8,928.6,2413.7,1162.5,2257.8z"/>
		<path class="st8" d="M974.5,2017.5c45.2-25.1,89.9-25.6,109.5,3.8c22.8,34.2,1.3,76-46.2,107.6c-43,28.7-92.5,21.8-112-7.6
			C903,2087.1,924.5,2045.4,974.5,2017.5z"/>
	</g>
	<polygon class="st5" points="111.6,1655 2391.6,1655 2412.9,1607.8 172.7,1607.8 	"/>
	<polygon class="st16" points="2814.6,1209 2391.5,1655.1 2391.5,2692.4 2814.6,2246.3 	"/>
	<g>
		<polygon class="st16" points="2391.6,1656 2440.6,1603.3 2440.6,2641.3 2391.6,2694 		"/>
		<polygon class="st16" points="2814.6,1209.3 2814.6,1278.3 2391.6,1723 2391.6,1654 		"/>
		<polygon class="st16" points="2765.6,1262 2814.6,1209.3 2814.6,2247.3 2765.6,2300 		"/>
		<polygon class="st16" points="2814.6,2180.3 2814.6,2249.3 2391.6,2694 2391.6,2625 		"/>
	</g>
	<rect x="111.1" y="1655.1" class="st0" width="2280.1" height="1037.3"/>
	<g>
		<rect x="2322.6" y="1655" class="st0" width="69" height="1038"/>
		<rect x="111.6" y="1655" class="st0" width="69" height="1038"/>
		
			<rect x="1217.1" y="548.5" transform="matrix(-1.836970e-16 1 -1 -1.836970e-16 2940.0786 436.9215)" class="st0" width="69" height="2280"/>
		
			<rect x="1217.1" y="1517.5" transform="matrix(-1.836970e-16 1 -1 -1.836970e-16 3909.0786 1405.9215)" class="st0" width="69" height="2280"/>
	</g>
	<path class="st0" d="M276.1,614"/>
	<line class="st7" x1="490.6" y1="331" x2="2765.6" y2="331"/>
	<g>
		<path class="st17" d="M2814.2,1214.8c60.2-142.9,99.7-332,99.7-509.4c0-285.9-102.6-433.1-229.2-328.8
			c-48.1,39.7-92.8,110-129.7,197.6L2814.2,1214.8z"/>
		<path class="st17" d="M2803.6,1086c46.6-110.6,78.1-251.7,78.1-389c0-247.9-73.7-366.3-180-259.8c-34.1,34.2-67.4,91.3-96,159.1
			L2803.6,1086z"/>
	</g>
	<path class="st18" d="M561.3,344.9"/>
	<path class="st18" d="M2744,339.2"/>
</g>
</svg>
